<?xml version="1.0" encoding="UTF-8" standalone="no"?>
<!-- Created with Inkscape (http://www.inkscape.org/) -->

<svg
   xmlns:dc="http://purl.org/dc/elements/1.1/"
   xmlns:cc="http://creativecommons.org/ns#"
   xmlns:rdf="http://www.w3.org/1999/02/22-rdf-syntax-ns#"
   xmlns:svg="http://www.w3.org/2000/svg"
   xmlns="http://www.w3.org/2000/svg"
   xmlns:sodipodi="http://sodipodi.sourceforge.net/DTD/sodipodi-0.dtd"
   xmlns:inkscape="http://www.inkscape.org/namespaces/inkscape"
   width="46.040367mm"
   height="45mm"
   viewBox="0 0 46.040367 45"
   version="1.1"
   id="svg8"
   inkscape:version="0.92.4 (unknown)"
   sodipodi:docname="work_area.svg">
  <defs
     id="defs2">
    <clipPath
       clipPathUnits="userSpaceOnUse"
       id="clipPath899">
      <rect
         style="opacity:0.62699998;fill:#000000;fill-opacity:0.99492385;stroke:none;stroke-width:0.17474674;stroke-linecap:butt;stroke-linejoin:miter;stroke-miterlimit:4;stroke-dasharray:none;stroke-dashoffset:0;stroke-opacity:0.94416241;paint-order:stroke markers fill"
         id="rect901"
         width="46.040367"
         height="38.855595"
         x="19.486639"
         y="5.8535781" />
    </clipPath>
  </defs>
  <sodipodi:namedview
     id="base"
     pagecolor="#ffffff"
     bordercolor="#666666"
     borderopacity="1.0"
     inkscape:pageopacity="0.0"
     inkscape:pageshadow="2"
     inkscape:zoom="8"
     inkscape:cx="71.108518"
     inkscape:cy="111.85291"
     inkscape:document-units="mm"
     inkscape:current-layer="layer1"
     showgrid="false"
     inkscape:snap-bbox="true"
     inkscape:snap-bbox-edge-midpoints="true"
     inkscape:snap-bbox-midpoints="true"
     inkscape:bbox-nodes="true"
     fit-margin-top="0"
     fit-margin-left="0"
     fit-margin-right="0"
     fit-margin-bottom="0"
     inkscape:window-width="1853"
     inkscape:window-height="1025"
     inkscape:window-x="67"
     inkscape:window-y="27"
     inkscape:window-maximized="1"
     inkscape:snap-intersection-paths="true" />
  <metadata
     id="metadata5">
    <rdf:RDF>
      <cc:Work
         rdf:about="">
        <dc:format>image/svg+xml</dc:format>
        <dc:type
           rdf:resource="http://purl.org/dc/dcmitype/StillImage" />
        <dc:title></dc:title>
      </cc:Work>
    </rdf:RDF>
  </metadata>
  <g
     inkscape:label="Layer 1"
     inkscape:groupmode="layer"
     id="layer1"
     transform="translate(-19.486639,0.2908273)">
    <path
       style="fill:none;fill-rule:evenodd;stroke:#727272;stroke-width:0.06614583;stroke-linecap:butt;stroke-linejoin:miter;stroke-miterlimit:4;stroke-dasharray:none;stroke-opacity:1"
       d="M 30.713053,8.8582053 V 0.87266974"
       id="path1028"
       inkscape:connector-curvature="0" />
    <path
       inkscape:connector-curvature="0"
       id="path1046"
       d="M 49.054184,8.7528083 V 0.76727204"
       style="fill:none;fill-rule:evenodd;stroke:#727272;stroke-width:0.06614583;stroke-linecap:butt;stroke-linejoin:miter;stroke-miterlimit:4;stroke-dasharray:none;stroke-opacity:1" />
    <path
       style="fill:none;fill-rule:evenodd;stroke:#727272;stroke-width:0.06614583;stroke-linecap:butt;stroke-linejoin:miter;stroke-miterlimit:4;stroke-dasharray:none;stroke-opacity:1"
       d="M 35.704018,8.9879603 V 4.9381016"
       id="path1030"
       inkscape:connector-curvature="0" />
    <path
       d="M 38.976654,20.825342 V 317.82533 M 41.622487,20.825342 V 317.82533 M 44.268321,20.825342 V 317.82533 M 46.914154,20.825342 V 317.82533 M 49.559987,20.825342 V 317.82533 M 52.20582,20.825342 V 317.82533 M 54.851654,20.825342 V 317.82533 M 57.497487,20.825342 V 317.82533 M 60.14332,20.825342 V 317.82533 M 62.789153,20.825342 V 317.82533 M 65.434987,20.825342 V 317.82533 M 68.08082,20.825342 V 317.82533 M 70.726655,20.825342 V 317.82533 M 73.372485,20.825342 V 317.82533 M 76.018325,20.825342 V 317.82533 M 78.664155,20.825342 V 317.82533 M 81.309985,20.825342 V 317.82533 M 83.955825,20.825342 V 317.82533 M 86.601655,20.825342 V 317.82533 M 89.247485,20.825342 V 317.82533 M 91.893315,20.825342 V 317.82533 M 94.539155,20.825342 V 317.82533 M 97.184985,20.825342 V 317.82533 M 99.830815,20.825342 V 317.82533 M 102.47665,20.825342 V 317.82533 M 105.12248,20.825342 V 317.82533 M 107.76831,20.825342 V 317.82533 M 110.41415,20.825342 V 317.82533 M 113.05998,20.825342 V 317.82533 M 115.70581,20.825342 V 317.82533 M 118.35165,20.825342 V 317.82533 M 120.99748,20.825342 V 317.82533 M 123.64331,20.825342 V 317.82533 M 126.28915,20.825342 V 317.82533 M 128.93498,20.825342 V 317.82533 M 131.58081,20.825342 V 317.82533 M 134.22665,20.825342 V 317.82533 M 136.87248,20.825342 V 317.82533 M 139.51831,20.825342 V 317.82533 M 142.16415,20.825342 V 317.82533 M 144.80998,20.825342 V 317.82533 M 147.45581,20.825342 V 317.82533 M 150.10165,20.825342 V 317.82533 M 152.74748,20.825342 V 317.82533 M 155.39331,20.825342 V 317.82533 M 158.03915,20.825342 V 317.82533 M 160.68498,20.825342 V 317.82533 M 163.33081,20.825342 V 317.82533 M 165.97665,20.825342 V 317.82533 M 168.62248,20.825342 V 317.82533 M 171.26831,20.825342 V 317.82533 M 173.91415,20.825342 V 317.82533 M 176.55998,20.825342 V 317.82533 M 179.20581,20.825342 V 317.82533 M 181.85165,20.825342 V 317.82533 M 184.49748,20.825342 V 317.82533 M 187.14331,20.825342 V 317.82533 M 189.78915,20.825342 V 317.82533 M 192.43498,20.825342 V 317.82533 M 195.08081,20.825342 V 317.82533 M 197.72665,20.825342 V 317.82533 M 200.37248,20.825342 V 317.82533 M 203.01831,20.825342 V 317.82533 M 205.66415,20.825342 V 317.82533 M 208.30998,20.825342 V 317.82533 M 210.95581,20.825342 V 317.82533 M 213.60165,20.825342 V 317.82533 M 216.24748,20.825342 V 317.82533 M 218.89331,20.825342 V 317.82533 M 221.53915,20.825342 V 317.82533 M 224.18498,20.825342 V 317.82533 M 226.83081,20.825342 V 317.82533 M 229.47665,20.825342 V 317.82533 M 232.12248,20.825342 V 317.82533 M 234.76831,20.825342 V 317.82533 M 237.41415,20.825342 V 317.82533 M 240.05998,20.825342 V 317.82533 M 242.70581,20.825342 V 317.82533 M 245.35165,20.825342 V 317.82533 M 247.99748,20.825342 V 317.82533 M 38.976654,20.825342 H 248.97665 M 38.976654,23.471176 H 248.97665 M 38.976654,26.117009 H 248.97665 M 38.976654,28.762842 H 248.97665 M 38.976654,31.408675 H 248.97665 M 38.976654,34.054508 H 248.97665 M 38.976654,36.700342 H 248.97665 M 38.976654,39.346175 H 248.97665 M 38.976654,41.992008 H 248.97665 M 38.976654,44.637841 H 248.97665 M 38.976654,47.283675 H 248.97665 M 38.976654,49.929508 H 248.97665 M 38.976654,52.575341 H 248.97665 M 38.976654,55.221175 H 248.97665 M 38.976654,57.867008 H 248.97665 M 38.976654,60.512841 H 248.97665 M 38.976654,63.158674 H 248.97665 M 38.976654,65.804508 H 248.97665 M 38.976654,68.450341 H 248.97665 M 38.976654,71.096174 H 248.97665 M 38.976654,73.742007 H 248.97665 M 38.976654,76.387841 H 248.97665 M 38.976654,79.033674 H 248.97665 M 38.976654,81.679507 H 248.97665 M 38.976654,84.325341 H 248.97665 M 38.976654,86.971174 H 248.97665 M 38.976654,89.617007 H 248.97665 M 38.976654,92.26284 H 248.97665 M 38.976654,94.908674 H 248.97665 M 38.976654,97.554507 H 248.97665 M 38.976654,100.20034 H 248.97665 M 38.976654,102.84617 H 248.97665 M 38.976654,105.49201 H 248.97665 M 38.976654,108.13784 H 248.97665 M 38.976654,110.78367 H 248.97665 M 38.976654,113.42951 H 248.97665 M 38.976654,116.07534 H 248.97665 M 38.976654,118.72117 H 248.97665 M 38.976654,121.367 H 248.97665 M 38.976654,124.01284 H 248.97665 M 38.976654,126.65867 H 248.97665 M 38.976654,129.3045 H 248.97665 M 38.976654,131.95034 H 248.97665 M 38.976654,134.59617 H 248.97665 M 38.976654,137.242 H 248.97665 M 38.976654,139.88784 H 248.97665 M 38.976654,142.53367 H 248.97665 M 38.976654,145.1795 H 248.97665 M 38.976654,147.82534 H 248.97665 M 38.976654,150.47117 H 248.97665 M 38.976654,153.117 H 248.97665 M 38.976654,155.76284 H 248.97665 M 38.976654,158.40867 H 248.97665 M 38.976654,161.0545 H 248.97665 M 38.976654,163.70034 H 248.97665 M 38.976654,166.34617 H 248.97665 M 38.976654,168.992 H 248.97665 M 38.976654,171.63784 H 248.97665 M 38.976654,174.28367 H 248.97665 M 38.976654,176.9295 H 248.97665 M 38.976654,179.57534 H 248.97665 M 38.976654,182.22117 H 248.97665 M 38.976654,184.867 H 248.97665 M 38.976654,187.51284 H 248.97665 M 38.976654,190.15867 H 248.97665 M 38.976654,192.8045 H 248.97665 M 38.976654,195.45034 H 248.97665 M 38.976654,198.09617 H 248.97665 M 38.976654,200.742 H 248.97665 M 38.976654,203.38784 H 248.97665 M 38.976654,206.03367 H 248.97665 M 38.976654,208.6795 H 248.97665 M 38.976654,211.32534 H 248.97665 M 38.976654,213.97117 H 248.97665 M 38.976654,216.617 H 248.97665 M 38.976654,219.26284 H 248.97665 M 38.976654,221.90867 H 248.97665 M 38.976654,224.5545 H 248.97665 M 38.976654,227.20034 H 248.97665 M 38.976654,229.84617 H 248.97665 M 38.976654,232.492 H 248.97665 M 38.976654,235.13784 H 248.97665 M 38.976654,237.78367 H 248.97665 M 38.976654,240.4295 H 248.97665 M 38.976654,243.07533 H 248.97665 M 38.976654,245.72117 H 248.97665 M 38.976654,248.367 H 248.97665 M 38.976654,251.01283 H 248.97665 M 38.976654,253.65867 H 248.97665 M 38.976654,256.3045 H 248.97665 M 38.976654,258.95033 H 248.97665 M 38.976654,261.59617 H 248.97665 M 38.976654,264.242 H 248.97665 M 38.976654,266.88783 H 248.97665 M 38.976654,269.53367 H 248.97665 M 38.976654,272.1795 H 248.97665 M 38.976654,274.82533 H 248.97665 M 38.976654,277.47117 H 248.97665 M 38.976654,280.117 H 248.97665 M 38.976654,282.76283 H 248.97665 M 38.976654,285.40867 H 248.97665 M 38.976654,288.0545 H 248.97665 M 38.976654,290.70033 H 248.97665 M 38.976654,293.34617 H 248.97665 M 38.976654,295.992 H 248.97665 M 38.976654,298.63783 H 248.97665 M 38.976654,301.28367 H 248.97665 M 38.976654,303.9295 H 248.97665 M 38.976654,306.57533 H 248.97665 M 38.976654,309.22117 H 248.97665 M 38.976654,311.867 H 248.97665 M 38.976654,314.51283 H 248.97665 M 38.976654,317.15867 H 248.97665"
       style="fill:none;stroke:#000000;stroke-width:0.02645833;stroke-miterlimit:4;stroke-dasharray:0.3175, 0.3175;stroke-dashoffset:0"
       id="path865"
       inkscape:connector-curvature="0"
       clip-path="url(#clipPath899)"
       transform="translate(-3.175,-6.7457344)" />
    <rect
       style="opacity:1;fill:none;fill-opacity:1;stroke:#ff0000;stroke-width:0.16379073;stroke-linecap:butt;stroke-linejoin:miter;stroke-miterlimit:4;stroke-dasharray:none;stroke-opacity:0.94416241;paint-order:stroke markers fill"
       id="rect869"
       width="8.0167027"
       height="8.0124025"
       x="35.75032"
       y="14.028274" />
    <rect
       style="opacity:1;fill:#008000;fill-opacity:0.29441624;stroke:#007506;stroke-width:0.21079394;stroke-linecap:butt;stroke-linejoin:miter;stroke-miterlimit:4;stroke-dasharray:none;stroke-dashoffset:0;stroke-opacity:0.94416241;paint-order:stroke markers fill"
       id="rect873"
       width="18.268808"
       height="18.268808"
       x="30.785378"
       y="8.9966755" />
    <rect
       style="opacity:1;fill:#0000ff;fill-opacity:0.29441624;stroke:#007506;stroke-width:0.15875;stroke-linecap:butt;stroke-linejoin:miter;stroke-miterlimit:4;stroke-dasharray:none;stroke-dashoffset:0;stroke-opacity:0.94416241;paint-order:stroke markers fill"
       id="rect875"
       width="13.303866"
       height="13.237209"
       x="35.75032"
       y="14.028274" />
    <circle
       style="opacity:1;fill:#000000;fill-opacity:0.99492385;stroke:none;stroke-width:0.15875;stroke-linecap:butt;stroke-linejoin:miter;stroke-miterlimit:4;stroke-dasharray:none;stroke-dashoffset:0;stroke-opacity:0.94416241;paint-order:stroke markers fill"
       id="path877"
       cx="35.788425"
       cy="14.066379"
       r="0.44433558" />
    <path
       style="fill:#888888;fill-opacity:1;fill-rule:evenodd;stroke:#727272;stroke-width:0.06614583;stroke-linecap:butt;stroke-linejoin:miter;stroke-miterlimit:4;stroke-dasharray:none;stroke-opacity:1"
       d="M 30.67998,8.8912783 H 22.694444"
       id="path1004"
       inkscape:connector-curvature="0" />
    <circle
       r="0.44433558"
       cy="9.0237427"
       cx="30.761833"
       id="circle879"
       style="opacity:1;fill:#000000;fill-opacity:0.99492385;stroke:none;stroke-width:0.15875;stroke-linecap:butt;stroke-linejoin:miter;stroke-miterlimit:4;stroke-dasharray:none;stroke-dashoffset:0;stroke-opacity:0.94416241;paint-order:stroke markers fill" />
    <circle
       style="opacity:1;fill:#000000;fill-opacity:0.99492385;stroke:none;stroke-width:0.15875;stroke-linecap:butt;stroke-linejoin:miter;stroke-miterlimit:4;stroke-dasharray:none;stroke-dashoffset:0;stroke-opacity:0.94416241;paint-order:stroke markers fill"
       id="circle881"
       cx="49.13356"
       cy="27.344856"
       r="0.44433558" />
    <text
       xml:space="preserve"
       style="font-style:normal;font-variant:normal;font-weight:bold;font-stretch:normal;font-size:1.25057507px;line-height:116.99999571%;font-family:ABeeZee;-inkscape-font-specification:'ABeeZee Bold';font-variant-ligatures:normal;font-variant-caps:normal;font-variant-numeric:normal;font-feature-settings:normal;text-align:justify;letter-spacing:0px;word-spacing:0px;writing-mode:lr-tb;text-anchor:start;fill:#000000;fill-opacity:1;stroke:none;stroke-width:0.08337167px;stroke-linecap:butt;stroke-linejoin:miter;stroke-opacity:1"
       x="31.222698"
       y="8.1568098"
       id="text885"><tspan
         sodipodi:role="line"
         id="tspan883"
         x="31.222698"
         y="8.1568098"
         style="stroke-width:0.08337167px">(x_inicial, y_inicial)</tspan></text>
    <text
       id="text889"
       y="11.666427"
       x="32.960873"
       style="font-style:normal;font-variant:normal;font-weight:bold;font-stretch:normal;font-size:1.25057507px;line-height:116.99999571%;font-family:ABeeZee;-inkscape-font-specification:'ABeeZee Bold';font-variant-ligatures:normal;font-variant-caps:normal;font-variant-numeric:normal;font-feature-settings:normal;text-align:justify;letter-spacing:0px;word-spacing:0px;writing-mode:lr-tb;text-anchor:start;fill:#000000;fill-opacity:1;stroke:none;stroke-width:0.08337167px;stroke-linecap:butt;stroke-linejoin:miter;stroke-opacity:1"
       xml:space="preserve"><tspan
         style="stroke-width:0.08337167px"
         y="11.666427"
         x="32.960873"
         id="tspan887"
         sodipodi:role="line">(x_inicial + dist_to_border,</tspan><tspan
         style="stroke-width:0.08337167px"
         y="13.1296"
         x="32.960873"
         sodipodi:role="line"
         id="tspan891"> y_inicial + dist_to_border)</tspan></text>
    <text
       id="text895"
       y="28.992748"
       x="46.370094"
       style="font-style:normal;font-variant:normal;font-weight:bold;font-stretch:normal;font-size:1.25057507px;line-height:116.99999571%;font-family:ABeeZee;-inkscape-font-specification:'ABeeZee Bold';font-variant-ligatures:normal;font-variant-caps:normal;font-variant-numeric:normal;font-feature-settings:normal;text-align:justify;letter-spacing:0px;word-spacing:0px;writing-mode:lr-tb;text-anchor:start;fill:#000000;fill-opacity:1;stroke:none;stroke-width:0.08337167px;stroke-linecap:butt;stroke-linejoin:miter;stroke-opacity:1"
       xml:space="preserve"><tspan
         style="stroke-width:0.08337167px"
         y="28.992748"
         x="46.370094"
         id="tspan893"
         sodipodi:role="line">(x_final, y_final)</tspan></text>
    <path
       inkscape:connector-curvature="0"
       id="path1006"
       d="M 30.785377,27.265484 H 22.799841"
       style="fill:none;fill-rule:evenodd;stroke:#727272;stroke-width:0.06614583;stroke-linecap:butt;stroke-linejoin:miter;stroke-miterlimit:4;stroke-dasharray:none;stroke-opacity:1" />
    <path
       inkscape:connector-curvature="0"
       id="path1008"
       d="M 30.789383,14.028273 H 26.739524"
       style="fill:none;fill-rule:evenodd;stroke:#727272;stroke-width:0.06614583;stroke-linecap:butt;stroke-linejoin:miter;stroke-miterlimit:4;stroke-dasharray:none;stroke-opacity:1" />
    <path
       inkscape:connector-curvature="0"
       id="path1012"
       d="M 23.419725,28.042233 V 8.1685573"
       style="fill:#c8b7b7;fill-rule:evenodd;stroke:#727272;stroke-width:0.06614583;stroke-linecap:butt;stroke-linejoin:miter;stroke-miterlimit:4;stroke-dasharray:none;stroke-opacity:1" />
    <path
       style="fill:none;fill-rule:evenodd;stroke:#727272;stroke-width:0.06614583;stroke-linecap:butt;stroke-linejoin:miter;stroke-miterlimit:4;stroke-dasharray:none;stroke-opacity:1"
       d="M 27.722764,28.276094 V 13.313495"
       id="path1014"
       inkscape:connector-curvature="0" />
    <text
       xml:space="preserve"
       style="font-style:normal;font-variant:normal;font-weight:bold;font-stretch:normal;font-size:1.3669349px;line-height:116.99999571%;font-family:ABeeZee;-inkscape-font-specification:'ABeeZee Bold';font-variant-ligatures:normal;font-variant-caps:normal;font-variant-numeric:normal;font-feature-settings:normal;text-align:justify;letter-spacing:0px;word-spacing:0px;writing-mode:lr-tb;text-anchor:start;fill:#000000;fill-opacity:1;stroke:none;stroke-width:0.09112898px;stroke-linecap:butt;stroke-linejoin:miter;stroke-opacity:1"
       x="-24.323719"
       y="22.909662"
       id="text1018"
       transform="rotate(-90)"><tspan
         sodipodi:role="line"
         id="tspan1016"
         x="-24.323719"
         y="22.909662"
         style="font-size:1.16416669px;stroke-width:0.09112898px">Área de trabalho total</tspan></text>
    <text
       transform="rotate(-90)"
       id="text1022"
       y="25.890425"
       x="-20.552345"
       style="font-style:normal;font-variant:normal;font-weight:bold;font-stretch:normal;font-size:1.15167654px;line-height:116.99999571%;font-family:ABeeZee;-inkscape-font-specification:'ABeeZee Bold';font-variant-ligatures:normal;font-variant-caps:normal;font-variant-numeric:normal;font-feature-settings:normal;text-align:justify;letter-spacing:0px;word-spacing:0px;writing-mode:lr-tb;text-anchor:start;fill:#000000;fill-opacity:1;stroke:none;stroke-width:0.07677843px;stroke-linecap:butt;stroke-linejoin:miter;stroke-opacity:1"
       xml:space="preserve"><tspan
         style="text-align:center;text-anchor:middle;stroke-width:0.07677843px"
         y="25.890425"
         x="-20.379145"
         id="tspan1020"
         sodipodi:role="line">Área de trabalho </tspan><tspan
         style="text-align:center;text-anchor:middle;stroke-width:0.07677843px"
         y="27.237886"
         x="-20.552345"
         sodipodi:role="line"
         id="tspan1024">delimitada pela borda</tspan></text>
    <circle
       style="opacity:1;fill:#000000;fill-opacity:0.99492385;stroke:none;stroke-width:0.15875;stroke-linecap:butt;stroke-linejoin:miter;stroke-miterlimit:4;stroke-dasharray:none;stroke-dashoffset:0;stroke-opacity:0.94416241;paint-order:stroke markers fill"
       id="circle1026"
       cx="8.9778996"
       cy="-49.046333"
       r="0.44433558"
       transform="rotate(90)" />
    <path
       style="fill:none;fill-rule:evenodd;stroke:#727272;stroke-width:0.06614583;stroke-linecap:butt;stroke-linejoin:miter;stroke-miterlimit:4;stroke-dasharray:none;stroke-opacity:1"
       d="M 29.936304,1.4925537 H 49.80998"
       id="path1032"
       inkscape:connector-curvature="0" />
    <path
       inkscape:connector-curvature="0"
       id="path1034"
       d="M 34.878357,5.7955926 H 49.840956"
       style="fill:none;fill-rule:evenodd;stroke:#727272;stroke-width:0.06614583;stroke-linecap:butt;stroke-linejoin:miter;stroke-miterlimit:4;stroke-dasharray:none;stroke-opacity:1" />
    <text
       id="text1038"
       y="0.98249048"
       x="33.654816"
       style="font-style:normal;font-variant:normal;font-weight:bold;font-stretch:normal;font-size:1.3669349px;line-height:116.99999571%;font-family:ABeeZee;-inkscape-font-specification:'ABeeZee Bold';font-variant-ligatures:normal;font-variant-caps:normal;font-variant-numeric:normal;font-feature-settings:normal;text-align:justify;letter-spacing:0px;word-spacing:0px;writing-mode:lr-tb;text-anchor:start;fill:#000000;fill-opacity:1;stroke:none;stroke-width:0.09112898px;stroke-linecap:butt;stroke-linejoin:miter;stroke-opacity:1"
       xml:space="preserve"><tspan
         style="font-size:1.16416669px;stroke-width:0.09112898px"
         y="0.98249048"
         x="33.654816"
         id="tspan1036"
         sodipodi:role="line">Área de trabalho total</tspan></text>
    <text
       xml:space="preserve"
       style="font-style:normal;font-variant:normal;font-weight:bold;font-stretch:normal;font-size:1.15167654px;line-height:116.99999571%;font-family:ABeeZee;-inkscape-font-specification:'ABeeZee Bold';font-variant-ligatures:normal;font-variant-caps:normal;font-variant-numeric:normal;font-feature-settings:normal;text-align:justify;letter-spacing:0px;word-spacing:0px;writing-mode:lr-tb;text-anchor:start;fill:#000000;fill-opacity:1;stroke:none;stroke-width:0.07677843px;stroke-linecap:butt;stroke-linejoin:miter;stroke-opacity:1"
       x="42.401466"
       y="3.963253"
       id="text1044"><tspan
         sodipodi:role="line"
         id="tspan1040"
         x="42.574669"
         y="3.963253"
         style="text-align:center;text-anchor:middle;stroke-width:0.07677843px">Área de trabalho </tspan><tspan
         id="tspan1042"
         sodipodi:role="line"
         x="42.401466"
         y="5.3107147"
         style="text-align:center;text-anchor:middle;stroke-width:0.07677843px">delimitada pela borda</tspan></text>
    <path
       style="fill:none;fill-rule:evenodd;stroke:#727272;stroke-width:0.06614583;stroke-linecap:butt;stroke-linejoin:miter;stroke-miterlimit:4;stroke-dasharray:none;stroke-opacity:1"
       d="M 36.043772,5.2116176 35.35036,6.4126436"
       id="path1048"
       inkscape:connector-curvature="0" />
    <path
       inkscape:connector-curvature="0"
       id="path1050"
       d="m 49.423105,5.1390606 -0.693412,1.201026"
       style="fill:none;fill-rule:evenodd;stroke:#727272;stroke-width:0.06614583;stroke-linecap:butt;stroke-linejoin:miter;stroke-miterlimit:4;stroke-dasharray:none;stroke-opacity:1" />
    <path
       inkscape:connector-curvature="0"
       id="path1052"
       d="M 31.057692,0.90574264 30.36428,2.1067686"
       style="fill:none;fill-rule:evenodd;stroke:#727272;stroke-width:0.06614583;stroke-linecap:butt;stroke-linejoin:miter;stroke-miterlimit:4;stroke-dasharray:none;stroke-opacity:1" />
    <path
       style="fill:none;fill-rule:evenodd;stroke:#727272;stroke-width:0.06614583;stroke-linecap:butt;stroke-linejoin:miter;stroke-miterlimit:4;stroke-dasharray:none;stroke-opacity:1"
       d="M 49.404021,0.89589554 48.710609,2.0969215"
       id="path1054"
       inkscape:connector-curvature="0" />
    <path
       inkscape:connector-curvature="0"
       id="path1056"
       d="m 22.916612,8.3737363 0.980634,0.980633"
       style="fill:none;fill-rule:evenodd;stroke:#727272;stroke-width:0.06614583;stroke-linecap:butt;stroke-linejoin:miter;stroke-miterlimit:4;stroke-dasharray:none;stroke-opacity:1" />
    <path
       style="fill:none;fill-rule:evenodd;stroke:#727272;stroke-width:0.06614583;stroke-linecap:butt;stroke-linejoin:miter;stroke-miterlimit:4;stroke-dasharray:none;stroke-opacity:1"
       d="m 22.916612,26.772677 0.980634,0.980633"
       id="path1058"
       inkscape:connector-curvature="0" />
    <path
       inkscape:connector-curvature="0"
       id="path1060"
       d="m 27.231344,26.772677 0.980634,0.980633"
       style="fill:none;fill-rule:evenodd;stroke:#727272;stroke-width:0.06614583;stroke-linecap:butt;stroke-linejoin:miter;stroke-miterlimit:4;stroke-dasharray:none;stroke-opacity:1" />
    <path
       style="fill:none;fill-rule:evenodd;stroke:#727272;stroke-width:0.06614583;stroke-linecap:butt;stroke-linejoin:miter;stroke-miterlimit:4;stroke-dasharray:none;stroke-opacity:1"
       d="m 27.231344,13.542 0.980634,0.980633"
       id="path1062"
       inkscape:connector-curvature="0" />
    <path
       style="fill:none;fill-rule:evenodd;stroke:#727272;stroke-width:0.05754475;stroke-linecap:butt;stroke-linejoin:miter;stroke-miterlimit:4;stroke-dasharray:none;stroke-opacity:1"
       d="M 35.801654,44.128848 V 38.085042"
       id="path1083"
       inkscape:connector-curvature="0" />
    <path
       inkscape:connector-curvature="0"
       id="path1085"
       d="M 62.259987,44.218842 V 38.149354"
       style="fill:none;fill-rule:evenodd;stroke:#727272;stroke-width:0.05766688;stroke-linecap:butt;stroke-linejoin:miter;stroke-miterlimit:4;stroke-dasharray:none;stroke-opacity:1" />
    <path
       style="fill:#c8b7b7;fill-rule:evenodd;stroke:#727272;stroke-width:0.06614583;stroke-linecap:butt;stroke-linejoin:miter;stroke-miterlimit:4;stroke-dasharray:none;stroke-opacity:1"
       d="M 34.757279,43.268781 H 63.054872"
       id="path1087"
       inkscape:connector-curvature="0" />
    <text
       xml:space="preserve"
       style="font-style:normal;font-variant:normal;font-weight:bold;font-stretch:normal;font-size:1.3669349px;line-height:116.99999571%;font-family:ABeeZee;-inkscape-font-specification:'ABeeZee Bold';font-variant-ligatures:normal;font-variant-caps:normal;font-variant-numeric:normal;font-feature-settings:normal;text-align:justify;letter-spacing:0px;word-spacing:0px;writing-mode:lr-tb;text-anchor:start;fill:#000000;fill-opacity:1;stroke:none;stroke-width:0.09112898px;stroke-linecap:butt;stroke-linejoin:miter;stroke-opacity:1"
       x="44.4538"
       y="42.725643"
       id="text1091"><tspan
         sodipodi:role="line"
         id="tspan1089"
         x="44.4538"
         y="42.725643"
         style="font-size:1.16416669px;stroke-width:0.09112898px">Matriz de dados</tspan></text>
  </g>
</svg>
